<svg width="50" height="50" viewBox="0 0 50 50" fill="none" xmlns="http://www.w3.org/2000/svg">
<rect width="50" height="50" rx="3" fill="#B0413E"/>
<path d="M25.0003 25C25.917 25 26.7017 24.6736 27.3545 24.0208C28.0073 23.3681 28.3337 22.5833 28.3337 21.6667C28.3337 20.75 28.0073 19.9653 27.3545 19.3125C26.7017 18.6597 25.917 18.3333 25.0003 18.3333C24.0837 18.3333 23.2989 18.6597 22.6462 19.3125C21.9934 19.9653 21.667 20.75 21.667 21.6667C21.667 22.5833 21.9934 23.3681 22.6462 24.0208C23.2989 24.6736 24.0837 25 25.0003 25ZM25.0003 41.6667C21.4448 37.6667 18.7781 33.2222 16.1114 30.5556C13.9031 27.2917 11.667 24.7778 11.667 22C11.667 17.8333 13.0073 14.5139 15.6878 12.0417C18.3684 9.56946 21.4725 8.33334 25.0003 8.33334C28.5281 8.33334 31.6323 9.56946 34.3128 12.0417C36.9934 14.5139 38.3337 17.8333 38.3337 22C38.3337 24.7778 36.0975 27.2917 33.8892 30.5556C31.2225 33.2222 28.5559 37.6667 25.0003 41.6667Z" fill="#2589BD"/>
<circle cx="25" cy="21.6667" r="5" fill="#C9C9CB"/>
</svg>
